# xmcd
#
# Track frame offsets:
#   150
#   17942
#   34757
#   61727
#   80297
#   109642
#   132957
#   155857
#   183655
#   207355
#
# Disc length: 2764 seconds
#
# Revision: 0
# Processed by: cddbd v1.5.1PL2 Copyright (c) Steve Scherf et al.
# Submitted via: GXTranscoder 2.24.2965
#
DISCID=850aca0a
DTITLE=Willi Nelson - Superhits
DYEAR=1994
DGENRE=Country
TTITLE0=On the road again
TTITLE1=My heroes have always been Cowboys
TTITLE2=Blue eyes crying in the rain
TTITLE3=Nothing i can do about it now
TTITLE4=Georgia on my mind
TTITLE5=Living in the promiseland
TTITLE6=Poncho and lefty (with Merle Haggard)
TTITLE7=Allways on my mind
TTITLE8=City of New Orleans
TTITLE9=Angel flying too close to the ground
EXTD=
EXTT0=
EXTT1=
EXTT2=
EXTT3=
EXTT4=
EXTT5=
EXTT6=
EXTT7=
EXTT8=
EXTT9=
PLAYORDER=
